<svg preserveAspectRatio="none" overflow="visible" style="display: block;" width="48" height="48" viewBox="0 0 48 48" fill="none" xmlns="http://www.w3.org/2000/svg">
<g id="image 36_SVG">
<path id="Vector" fill-rule="evenodd" clip-rule="evenodd" d="M10.9923 2.54147C9.8808 2.72663 8.66149 3.41232 7.86668 4.29919C7.33202 4.89572 6.72405 6.08091 6.57096 6.82491C6.42705 7.52457 6.42705 40.4754 6.57096 41.1751C6.62721 41.4483 6.84077 42.0229 7.04561 42.4519C7.67655 43.7735 8.80418 44.7554 10.3125 45.2969L10.9219 45.5156H23.9531C36.3118 45.5156 37.0135 45.5068 37.5469 45.3442C39.0215 44.8945 40.3106 43.8004 40.9544 42.4519C41.1593 42.0229 41.3728 41.4483 41.4291 41.1751C41.5692 40.4939 41.5732 15.7813 41.4332 15.4045C41.2871 15.011 29.1071 2.83641 28.6406 2.61751C28.2821 2.44941 27.8961 2.44201 19.875 2.45054C15.2602 2.45541 11.263 2.49629 10.9923 2.54147ZM26.4396 10.8984C26.4416 15.9299 26.4525 16.2896 26.6161 16.6499C26.7121 16.8612 26.9327 17.1354 27.1062 17.2593L27.4219 17.4844L32.9297 17.51L38.4375 17.5356V28.9542C38.4375 41.5197 38.469 40.8279 37.8629 41.5631C37.7045 41.7554 37.3576 42.0273 37.0921 42.1673L36.6094 42.4219H24H11.3906L10.9079 42.1673C10.6424 42.0273 10.2956 41.7554 10.1371 41.5631C9.52296 40.818 9.56252 42.0281 9.56252 24C9.56252 5.9731 9.52296 7.18191 10.1367 6.43735C10.4126 6.10266 10.9401 5.77079 11.4375 5.61891C11.5664 5.57954 14.9942 5.54372 19.0547 5.53932L26.4375 5.53126L26.4396 10.8984ZM32.9063 11.1094L36.2334 14.4375H32.8824H29.5313V11.1094C29.5313 9.27891 29.5421 7.78126 29.5552 7.78126C29.5684 7.78126 31.0764 9.27891 32.9063 11.1094ZM19.125 23.5479C18.8773 23.6183 18.1447 24.2888 16.1377 26.2815C13.4137 28.9862 13.1291 29.3378 13.1291 30C13.1291 30.6624 13.4134 31.0136 16.1377 33.7172C18.3458 35.9085 18.863 36.3758 19.1863 36.4715C20.2028 36.7724 21.187 36.0418 21.1873 34.986C21.1874 34.7635 21.1408 34.4893 21.0838 34.3766C21.0268 34.264 20.0468 33.2336 18.9059 32.0869L16.8316 30.002L18.9561 27.8681C20.3412 26.477 21.1031 25.6427 21.1456 25.4709C21.2437 25.074 21.137 24.3847 20.9345 24.1065C20.7157 23.8058 20.0166 23.4344 19.6911 23.4459C19.5602 23.4506 19.3055 23.4965 19.125 23.5479ZM27.8081 23.5344C27.4867 23.6307 27.1263 23.95 26.9442 24.3C26.7882 24.5998 26.772 25.2869 26.9123 25.658C26.9671 25.8031 27.9255 26.8395 29.0422 27.9609L31.0725 30L29.0422 32.0391C27.9255 33.1605 26.9671 34.1969 26.9123 34.342C26.7702 34.7179 26.789 35.4012 26.9498 35.7123C27.2824 36.3554 28.1205 36.7023 28.8 36.478C29.0191 36.4058 29.9693 35.5165 31.9408 33.5388C34.3868 31.0851 34.7761 30.6558 34.8317 30.3516C34.9851 29.5118 34.9951 29.5252 31.9384 26.4589C28.7916 23.302 28.73 23.2584 27.8081 23.5344Z" fill="white"/>
</g>
</svg>
